<?xml version="1.0" standalone="no"?>
<!DOCTYPE svg PUBLIC "-//W3C//DTD SVG 20010904//EN"
 "http://www.w3.org/TR/2001/REC-SVG-20010904/DTD/svg10.dtd">
<svg version="1.0" xmlns="http://www.w3.org/2000/svg"
 width="1024.000000pt" height="764.000000pt" viewBox="0 0 1024.000000 764.000000"
 preserveAspectRatio="xMidYMid meet">

<g transform="translate(0.000000,764.000000) scale(0.100000,-0.100000)"
fill="#000000" stroke="none">
<path d="M1900 3810 l0 -3220 3220 0 3220 0 0 3220 0 3220 -3220 0 -3220 0 0
-3220z m2454 1309 c163 -18 348 -81 458 -157 110 -76 214 -206 255 -320 36
-97 33 -106 -55 -197 -42 -44 -121 -127 -175 -184 -54 -57 -101 -101 -104 -97
-3 3 -10 34 -15 68 -17 126 -93 241 -195 295 -85 46 -147 53 -444 53 l-267 0
-59 43 c-32 24 -146 109 -253 188 -164 122 -269 199 -419 307 -22 16 10 17
575 15 347 -2 641 -7 698 -14z m3146 2 c0 -9 -117 -109 -538 -463 l-92 -78
-353 0 c-384 0 -433 -5 -511 -57 -84 -55 -147 -153 -169 -265 l-12 -61 -105
114 c-58 63 -140 150 -182 194 -43 44 -78 87 -78 96 0 9 17 49 37 90 42 85
152 202 248 264 123 81 318 146 490 164 113 12 1265 13 1265 2z m-3680 -1400
c0 -448 2 -540 14 -550 10 -8 75 -11 212 -10 316 3 414 17 506 75 37 24 38 24
330 24 161 0 299 -4 307 -9 12 -8 12 -14 1 -43 -81 -200 -313 -406 -545 -483
-192 -65 -221 -67 -797 -72 l-528 -5 0 806 0 806 250 0 250 0 0 -539z m2211
-490 c117 -63 117 -63 764 -68 325 -3 591 -6 592 -7 4 -3 -170 -455 -186 -485
l-13 -23 -446 5 c-470 4 -537 10 -717 57 -232 62 -432 183 -553 335 -47 59
-112 174 -112 198 0 16 27 17 308 17 l308 0 55 -29z"/>
</g>
</svg>
